<?xml version="1.0" standalone="no"?><!DOCTYPE svg PUBLIC "-//W3C//DTD SVG 1.1//EN" "http://www.w3.org/Graphics/SVG/1.1/DTD/svg11.dtd"><svg t="1567674499823" class="icon" viewBox="0 0 1024 1024" version="1.1" xmlns="http://www.w3.org/2000/svg" p-id="7059" xmlns:xlink="http://www.w3.org/1999/xlink" width="64" height="64"><defs><style type="text/css"></style></defs><path d="M353.103448 370.758621H406.068966l-52.965518 282.482758H300.137931l52.965517-282.482758z m-10.593103 169.489655v-52.965517h194.206896v52.965517H342.510345z m187.144827-169.489655H582.62069l-52.965518 282.482758H476.689655l52.965517-282.482758z m141.24138 0H723.862069l-10.593103 52.965517h-52.965518l10.593104-52.965517zM653.241379 459.034483h52.965518l-35.310345 194.206896H617.931034l35.310345-194.206896z m70.62069 353.103448h120.055172l38.84138-38.841379V250.703448L843.917241 211.862069H180.082759L141.241379 250.703448v522.593104L180.082759 812.137931H646.17931l77.682759 28.248276V812.137931z m141.241379 52.965517h-88.275862V918.068966l-141.241379-52.965518H158.896552l-70.62069-70.620689v-564.965518l70.62069-70.620689h706.206896l70.62069 70.620689v564.965518l-70.62069 70.620689z" p-id="7060"></path></svg>